<?xml version="1.0" standalone="no"?>
<!DOCTYPE svg PUBLIC "-//W3C//DTD SVG 20010904//EN"
 "http://www.w3.org/TR/2001/REC-SVG-20010904/DTD/svg10.dtd">
<svg version="1.0" xmlns="http://www.w3.org/2000/svg"
 width="148.000000pt" height="28.000000pt" viewBox="0 0 148.000000 28.000000"
 preserveAspectRatio="xMidYMid meet">

<g transform="translate(0.000000,28.000000) scale(0.100000,-0.100000)"
fill="#000000" stroke="none">
<path d="M163 240 c-37 -22 -63 -67 -63 -107 0 -60 64 -123 125 -123 62 0 125
63 125 125 0 63 -65 125 -132 125 -13 0 -37 -9 -55 -20z m125 -76 c-3 -14 -5
-12 -10 9 -3 19 -2 25 4 19 6 -6 8 -18 6 -28z"/>
<path d="M450 135 c0 -63 1 -65 25 -65 16 0 25 6 25 15 0 9 9 15 24 15 13 0
29 -7 36 -15 7 -8 23 -15 37 -15 21 0 22 2 12 21 -8 15 -8 24 0 32 15 15 14
50 -1 65 -7 7 -42 12 -85 12 l-73 0 0 -65z m120 15 c0 -5 -16 -10 -35 -10 -19
0 -35 5 -35 10 0 6 16 10 35 10 19 0 35 -4 35 -10z"/>
<path d="M657 182 c-25 -27 -22 -78 5 -96 30 -21 112 -21 132 0 23 23 21 91
-3 104 -33 17 -116 12 -134 -8z m101 -44 c-3 -25 -43 -37 -60 -20 -19 19 0 42
32 42 27 0 31 -3 28 -22z"/>
<path d="M830 135 l0 -65 80 0 c64 0 81 3 89 17 6 11 6 24 -1 36 -5 10 -7 26
-4 34 12 31 -13 43 -90 43 l-74 0 0 -65z m110 25 c0 -5 -11 -10 -24 -10 -14 0
-28 5 -31 10 -4 6 7 10 24 10 17 0 31 -4 31 -10z m10 -50 c0 -5 -16 -10 -35
-10 -19 0 -35 5 -35 10 0 6 16 10 35 10 19 0 35 -4 35 -10z"/>
<path d="M1042 141 c-17 -32 -32 -61 -32 -65 0 -3 14 -6 30 -6 17 0 30 5 30
10 0 6 15 10 34 10 19 0 38 -4 41 -10 6 -10 55 -14 55 -5 0 3 -14 32 -30 65
-28 55 -33 60 -63 60 -29 0 -36 -6 -65 -59z m78 -12 c0 -5 -7 -9 -15 -9 -15 0
-20 12 -9 23 8 8 24 -1 24 -14z"/>
<path d="M1210 135 c0 -63 1 -65 25 -65 22 0 25 4 25 37 l0 37 38 -37 c25 -24
47 -37 65 -37 27 0 27 1 27 65 0 63 -1 65 -25 65 -21 0 -25 -5 -25 -32 l-1
-33 -28 33 c-22 25 -35 32 -64 32 l-37 0 0 -65z"/>
</g>
</svg>
